HIERARCHY
ROOT Hips
{
	OFFSET 0.000000 0.000000 0.000000
	CHANNELS 6 Xposition Yposition Zposition Zrotation Yrotation Xrotation
	JOINT Spine
	{
		OFFSET 0.000000 6.215748 0.000003
		CHANNELS 3 Zrotation Yrotation Xrotation
		JOINT Spine1
		{
			OFFSET 0.000000 16.962236 0.000014
			CHANNELS 3 Zrotation Yrotation Xrotation
			JOINT Neck
			{
				OFFSET 0.000000 18.478273 0.000014
				CHANNELS 3 Zrotation Yrotation Xrotation
				JOINT Head
				{
					OFFSET 0.000000 11.749283 1.516043
					CHANNELS 3 Zrotation Yrotation Xrotation
					End Site
					{
						OFFSET 0.000000 15.160354 0.000012
					}
				}
			}
			JOINT LeftShoulder
			{
				OFFSET 3.052904 14.920256 -0.400728
				CHANNELS 3 Zrotation Yrotation Xrotation
				JOINT LeftArm
				{
					OFFSET 10.893600 0.000000 0.000000
					CHANNELS 3 Zrotation Yrotation Xrotation
					JOINT LeftForeArm
					{
						OFFSET 21.360620 0.000000 0.000000
						CHANNELS 3 Zrotation Yrotation Xrotation
						JOINT LeftHand
						{
							OFFSET 19.851934 0.000000 0.000000
							CHANNELS 3 Zrotation Yrotation Xrotation
							End Site
							{
								OFFSET 11.370277 0.000000 0.000000
							}
						}
					}
				}
			}
			JOINT RightShoulder
			{
				OFFSET -3.010783 14.920256 -0.400728
				CHANNELS 3 Zrotation Yrotation Xrotation
				JOINT RightArm
				{
					OFFSET -10.893600 0.000000 0.000000
					CHANNELS 3 Zrotation Yrotation Xrotation
					JOINT RightForeArm
					{
						OFFSET -21.360628 0.000000 0.000000
						CHANNELS 3 Zrotation Yrotation Xrotation
						JOINT RightHand
						{
							OFFSET -19.851934 0.000000 0.000000
							CHANNELS 3 Zrotation Yrotation Xrotation
							End Site
							{
								OFFSET -11.370277 0.000000 0.000000
							}
						}
					}
				}
			}
		}
	}
	JOINT LeftUpLeg
	{
		OFFSET 7.580183 0.000000 0.000000
		CHANNELS 3 Zrotation Yrotation Xrotation
		JOINT LeftLeg
		{
			OFFSET 0.000000 -31.879606 -0.000021
			CHANNELS 3 Zrotation Yrotation Xrotation
			JOINT LeftFoot
			{
				OFFSET 0.000000 -33.422195 -0.000022
				CHANNELS 3 Zrotation Yrotation Xrotation
				JOINT LeftToeBase
				{
					OFFSET 0.000000 -4.927119 11.370273
					CHANNELS 3 Zrotation Yrotation Xrotation
					End Site
					{
						OFFSET 0.000000 0.000000 3.032075
					}
				}
			}
		}
	}
	JOINT RightUpLeg
	{
		OFFSET -7.580183 0.000000 0.000000
		CHANNELS 3 Zrotation Yrotation Xrotation
		JOINT RightLeg
		{
			OFFSET 0.000000 -31.879606 -0.000021
			CHANNELS 3 Zrotation Yrotation Xrotation
			JOINT RightFoot
			{
				OFFSET 0.000000 -33.422195 -0.000022
				CHANNELS 3 Zrotation Yrotation Xrotation
				JOINT RightToeBase
				{
					OFFSET 0.000000 -4.927119 11.370273
					CHANNELS 3 Zrotation Yrotation Xrotation
					End Site
					{
						OFFSET 0.000000 0.000000 3.032075
					}
				}
			}
		}
	}
}
MOTION
Frames: 10
Frame Time: 0.041667
93.110657 67.139839 -3.776372 -175.887589 -26.153208 -193.208211 5.049535 -1.118022 -12.779310 0.950880 -0.746751 19.731406 7.539347 8.864418 12.294157 -11.858522 12.743164 4.057613 17.057590 2.207196 -8.065864 -26.612304 -17.473782 4.200937 15.059568 -17.488436 -15.202165 -4.536659 -2.399166 -12.779236 -16.127839 -7.223756 -3.833905 20.968928 17.895161 27.339132 -127.006425 47.924343 -80.051948 -26.966031 6.775926 1.758591 -8.407550 -14.545713 10.360255 -4.894877 -8.394496 20.229741 11.846721 8.446202 -2.612246 0.000000 0.000001 0.000002 -8.796269 5.787183 -76.531143 29.963101 -48.549412 54.264340 5.739716 -26.293355 0.526387 -0.000007 -0.000002 -0.000000 
92.945183 67.096054 -3.856304 -176.146658 -26.991494 -192.888012 4.899554 -1.252154 -12.922564 0.806697 -0.761403 19.566245 7.460691 8.876501 12.242130 -11.766776 12.728246 4.129844 17.034383 2.207906 -8.037823 -26.641168 -17.555659 4.232564 15.099168 -17.479094 -15.286149 -4.512663 -2.352298 -12.860637 -16.145449 -7.316786 -3.787415 20.913800 17.861317 27.052930 -127.277693 48.085058 -80.507371 -26.929542 6.785946 1.856167 -8.643098 -14.682678 10.195828 -4.982584 -8.450006 20.294519 11.847657 7.955147 -2.680933 0.000001 0.000000 0.000002 -8.438391 5.963642 -75.820714 30.052371 -47.889619 53.232138 6.248725 -25.943739 0.657035 -0.000001 -0.000001 0.000002 
92.775047 67.050995 -3.946856 -176.385851 -27.848638 -192.620514 4.757752 -1.388657 -13.045391 0.656915 -0.776277 19.430196 7.434216 8.818488 12.267678 -11.794401 12.661501 4.069085 17.057101 2.172924 -7.994274 -26.694331 -17.658438 4.097539 15.081046 -17.456210 -15.250422 -4.500808 -2.370990 -12.830327 -16.126507 -7.378851 -3.750241 20.833291 17.772022 26.768410 -127.518402 48.210764 -80.913501 -26.928796 6.851616 1.903633 -8.879288 -14.643552 10.082559 -4.973915 -8.597694 20.395809 11.878146 7.383958 -2.762533 -0.000000 0.000001 0.000002 -8.085422 6.155049 -75.086086 29.791516 -47.300744 52.449207 6.734942 -25.483120 0.869039 0.000003 -0.000000 -0.000004 
92.605469 66.995293 -4.029715 -176.684740 -28.692214 -192.300943 4.558925 -1.496045 -13.150209 0.526037 -0.782346 19.270207 7.408092 8.776117 12.254039 -11.819826 12.611087 4.028798 17.045070 2.101999 -8.004784 -26.679136 -17.707667 3.971471 15.019589 -17.448948 -15.187233 -4.504840 -2.367726 -12.777746 -16.135690 -7.474712 -3.747182 20.814336 17.674422 26.568005 -127.763073 48.302562 -81.275891 -26.915501 6.829403 1.977384 -9.128101 -14.702134 9.952097 -4.957155 -8.408077 20.440449 11.954556 6.569260 -2.884772 -0.000000 0.000001 -0.000000 -7.763155 6.360869 -74.389749 29.563251 -46.564890 51.698627 6.928835 -25.068358 1.119998 -0.000009 0.000000 0.000004 
92.429970 66.945824 -4.116464 -176.911025 -29.568302 -192.031971 4.460580 -1.647545 -13.276084 0.337973 -0.798224 19.177144 7.353002 8.775930 12.181179 -11.761108 12.584857 4.028483 17.062434 2.107361 -7.958623 -26.730546 -17.823005 4.074687 15.117609 -17.414635 -15.287323 -4.487479 -2.322683 -12.869354 -16.145319 -7.532581 -3.739792 20.801966 17.555220 26.246525 -128.070855 48.453430 -81.757255 -26.984407 6.823286 2.082925 -9.302716 -14.776228 9.924337 -5.058960 -8.552114 20.459231 12.095644 6.071282 -3.046847 0.000000 -0.000000 -0.000000 -7.444396 6.532211 -73.603840 29.216182 -45.937663 50.966148 7.138918 -24.589245 1.365416 0.000002 0.000004 0.000012 
92.253944 66.893631 -4.221474 -177.114032 -30.484131 -191.792491 4.274811 -1.823096 -13.401472 0.287332 -0.841988 19.098700 7.289916 8.744436 12.125682 -11.736943 12.528409 4.002014 17.039683 2.063529 -7.963582 -26.761047 -17.906978 4.033006 15.122961 -17.412924 -15.284230 -4.442016 -2.328476 -12.866390 -16.142992 -7.665922 -3.659422 20.763920 17.574160 26.081795 -128.209618 48.347788 -82.237049 -26.494784 7.237867 1.571115 -9.497036 -14.904777 9.911587 -5.076676 -8.590794 20.456574 12.163370 5.444150 -3.182666 0.000000 -0.000000 0.000002 -7.090304 6.711462 -72.786812 28.809321 -45.080478 50.367198 7.577391 -23.956009 1.439595 -0.000004 -0.000003 0.000004 
92.075035 66.833290 -4.304235 -177.360233 -31.340098 -191.485815 4.161560 -1.940190 -13.535569 0.107746 -0.847609 19.018170 7.286597 8.708696 12.063481 -11.788696 12.489743 3.941217 17.059379 2.018931 -7.935188 -26.766716 -17.995494 3.902318 15.117662 -17.417918 -15.243971 -4.458815 -2.357537 -12.824764 -16.135162 -7.750293 -3.623254 20.749304 17.494041 25.689496 -128.492319 48.544900 -82.649872 -26.598613 7.168171 1.790208 -9.688217 -14.914500 9.817375 -5.208864 -8.904781 20.525866 12.276303 5.086634 -3.284518 0.000000 0.000002 0.000002 -6.721298 6.925550 -72.036530 28.262928 -44.212443 49.798626 7.835538 -23.579594 1.673380 -0.000003 -0.000001 0.000001 
91.899887 66.778343 -4.382138 -177.599098 -32.213686 -191.179276 4.026950 -2.072938 -13.623675 -0.018047 -0.866121 18.883074 7.212167 8.670164 12.021895 -11.762661 12.414708 3.842004 17.059777 1.973048 -7.943488 -26.821072 -18.031238 4.082958 15.240949 -17.432886 -15.361896 -4.419403 -2.296220 -12.924657 -16.171923 -7.834463 -3.562688 20.771100 17.429630 25.484657 -128.856559 48.352255 -83.949138 -25.448767 8.433736 0.488191 -9.927028 -15.078682 9.724323 -5.253469 -8.983948 20.596949 12.412072 4.632184 -3.375498 0.000000 -0.000001 0.000003 -6.422425 7.153098 -71.259418 27.502482 -43.473905 49.357399 7.943590 -22.898322 1.923137 0.000003 0.000004 -0.000002 
91.716972 66.715614 -4.459454 -177.858987 -33.074501 -190.835417 3.882348 -2.181137 -13.761347 -0.150204 -0.875956 18.799087 7.160345 8.647293 11.923479 -11.719171 12.365962 3.824422 17.077963 1.918021 -7.933130 -26.857982 -18.114080 4.019910 15.254340 -17.456534 -15.358145 -4.346248 -2.330300 -12.915711 -16.116537 -7.808797 -3.641451 20.644418 17.206681 24.526714 -129.633125 48.983262 -85.349791 -25.510436 8.408854 0.929308 -10.184738 -15.127281 9.626768 -5.282742 -9.224404 20.669983 12.516943 4.293745 -3.449711 0.000000 -0.000000 0.000004 -6.172804 7.385451 -70.525685 26.890552 -42.550292 48.780600 8.444976 -22.491676 2.139063 0.000002 0.000002 -0.000002 
91.533867 66.655556 -4.532604 -178.116895 -33.943895 -190.517390 3.753784 -2.312091 -13.859810 -0.293063 -0.891707 18.704309 7.148315 8.611546 11.920015 -11.787453 12.322939 3.704836 17.077734 1.813618 -7.928530 -26.875447 -18.105658 3.941919 15.285468 -17.517091 -15.339700 -4.369084 -2.307163 -12.884529 -16.123109 -7.778192 -3.628077 20.700155 16.983503 24.590184 -129.688353 48.738283 -85.343924 -25.481336 8.320858 0.703921 -10.412410 -15.159535 9.540905 -5.533609 -9.844911 20.809442 12.684435 4.403594 -3.445056 -0.000000 -0.000000 0.000002 -5.949963 7.626450 -69.743048 26.138699 -41.675222 48.249245 8.852753 -22.058591 2.415700 0.000000 0.000000 0.000001 
